<?xml version="1.0" encoding="UTF-8"?>
<svg id="Capa_1" data-name="Capa 1" xmlns="http://www.w3.org/2000/svg" viewBox="0 0 43.59 43.59">
  <defs>
    <style>
      .cls-1 {
        fill: #ffb470;
      }

      .cls-1, .cls-2 {
        stroke-width: 0px;
      }

      .cls-2 {
        fill: #fff;
      }
    </style>
  </defs>
  <path class="cls-1" d="M36.89,18.74c0,10.66-14.43,21.2-15.1,21.2-1.74,0-15.1-10.75-15.1-21.2,0-8.34,6.76-15.1,15.1-15.1s15.1,6.76,15.1,15.1Z"/>
  <g>
    <path class="cls-2" d="M23.1,8.61c-1.82,5.01-1.35,7.22-.31,8.79,1.41,2.11.95,4.85-.03,7.07.05,0,.1.01.15.01,2.7,0,5.95-3.56,5.95-7.95,0-4.29-3.15-7.78-5.77-7.93Z"/>
    <path class="cls-2" d="M20.7,17.4c-1.05-1.57-1.51-3.78.31-8.79-.06,0-.12-.01-.18-.01-2.7,0-6.39,3.56-6.38,7.95,0,4.3,3.6,7.8,6.23,7.93.98-2.23,1.43-4.96.03-7.07Z"/>
  </g>
</svg>